<svg width="15" height="15" viewBox="0 0 15 15" fill="none" xmlns="http://www.w3.org/2000/svg">
<g id="instagram">
<g clip-path="url(#clip0_1339_390)">
<path id="Path 16" d="M4.54294 13.5132C4.07879 13.508 3.619 13.4229 3.18376 13.2615C2.86593 13.1441 2.57838 12.957 2.34212 12.7141C2.09856 12.4783 1.91126 12.1907 1.79412 11.8726C1.63291 11.4374 1.5479 10.9776 1.54282 10.5135C1.50718 9.74202 1.5 9.51061 1.5 7.55566C1.5 5.60072 1.50788 5.37014 1.54247 4.59802C1.54817 4.13411 1.63328 3.6746 1.79412 3.23943C1.91183 2.92155 2.09887 2.63387 2.34165 2.39731C2.57762 2.15397 2.86531 1.96684 3.18341 1.84978C3.61865 1.68844 4.07844 1.60331 4.54259 1.59813C5.31435 1.56284 5.54612 1.55566 7.5 1.55566C9.45388 1.55566 9.68553 1.56355 10.4576 1.59813C10.9217 1.60379 11.3813 1.6889 11.8166 1.84978C12.1346 1.967 12.4222 2.15406 12.6582 2.39719C12.9014 2.63334 13.0886 2.92103 13.2059 3.23908C13.3673 3.67431 13.4524 4.13409 13.4576 4.59825C13.4929 5.37037 13.5001 5.60155 13.5001 7.5559C13.5001 9.51025 13.4929 9.74143 13.4576 10.5135C13.452 10.9776 13.3669 11.4373 13.2059 11.8726C13.0841 12.1883 12.8976 12.4749 12.6583 12.7142C12.419 12.9534 12.1323 13.1398 11.8166 13.2615C11.3814 13.4229 10.9216 13.5081 10.4574 13.5133C9.686 13.5486 9.45412 13.5558 7.49977 13.5558C5.54541 13.5558 5.31424 13.549 4.54282 13.5133" fill="url(#paint0_radial_1339_390)"/>
<path id="Path 17" d="M4.1697 13.5131C3.68621 13.5079 3.20727 13.4228 2.7539 13.2614C2.42283 13.1439 2.1233 12.9569 1.8772 12.714C1.62349 12.4782 1.42839 12.1906 1.30637 11.8725C1.13845 11.4373 1.0499 10.9775 1.04461 10.5135C1.00748 9.74194 1 9.51053 1 7.55561C1 5.60068 1.00821 5.3701 1.04424 4.59799C1.05017 4.13408 1.13883 3.67458 1.30637 3.23941C1.42898 2.92153 1.62381 2.63386 1.87671 2.3973C2.1225 2.15397 2.42218 1.96684 2.75354 1.84978C3.20691 1.68844 3.68585 1.60331 4.16933 1.59813C4.97325 1.56284 5.21466 1.55566 7.24994 1.55566C9.28521 1.55566 9.52651 1.56355 10.3308 1.59813C10.8141 1.60379 11.2929 1.6889 11.7463 1.84978C12.0776 1.96699 12.3771 2.15406 12.623 2.39719C12.8764 2.63333 13.0713 2.92101 13.1935 3.23906C13.3616 3.67429 13.4503 4.13407 13.4558 4.59822C13.4925 5.37033 13.5 5.60151 13.5 7.55584C13.5 9.51017 13.4925 9.74135 13.4558 10.5135C13.4499 10.9775 13.3612 11.4372 13.1935 11.8725C13.0666 12.1882 12.8723 12.4748 12.6231 12.714C12.3738 12.9533 12.0752 13.1397 11.7463 13.2614C11.293 13.4228 10.814 13.508 10.3305 13.5132C9.527 13.5485 9.28546 13.5557 7.24969 13.5557C5.21393 13.5557 4.97312 13.5488 4.16958 13.5132" fill="url(#paint1_radial_1339_390)"/>
<path id="Path 18" d="M6.02692 7.58081C6.02695 7.2869 6.11413 6.9996 6.27743 6.75524C6.44074 6.51088 6.67284 6.32043 6.94439 6.20799C7.21594 6.09554 7.51473 6.06614 7.80299 6.12351C8.09124 6.18088 8.35601 6.32244 8.56381 6.53029C8.77161 6.73814 8.9131 7.00295 8.97041 7.29121C9.02771 7.57948 8.99824 7.87827 8.88573 8.14979C8.77322 8.42131 8.58271 8.65336 8.33831 8.81662C8.09391 8.97987 7.8066 9.06698 7.51269 9.06693C7.1186 9.06687 6.74067 8.91026 6.46204 8.63156C6.1834 8.35287 6.02689 7.9749 6.02692 7.58081ZM5.22351 7.58081C5.22351 8.03357 5.35777 8.47616 5.60931 8.85261C5.86084 9.22906 6.21837 9.52247 6.63666 9.69574C7.05495 9.869 7.51523 9.91433 7.95928 9.826C8.40334 9.73768 8.81123 9.51965 9.13138 9.1995C9.45153 8.87936 9.66955 8.47147 9.75788 8.02741C9.84621 7.58335 9.80087 7.12307 9.62761 6.70478C9.45435 6.28649 9.16094 5.92897 8.78449 5.67743C8.40803 5.42589 7.96544 5.29163 7.51269 5.29163C7.21207 5.29162 6.91438 5.35082 6.63664 5.46586C6.3589 5.58089 6.10653 5.74951 5.89396 5.96208C5.68139 6.17466 5.51277 6.42702 5.39773 6.70476C5.2827 6.98251 5.2235 7.28019 5.22351 7.58081ZM9.35751 5.20093C9.35747 5.30673 9.38879 5.41017 9.44754 5.49817C9.50628 5.58616 9.58979 5.65476 9.68752 5.69529C9.78525 5.73583 9.8928 5.74647 9.99658 5.72587C10.1004 5.70528 10.1957 5.65437 10.2705 5.57959C10.3454 5.50481 10.3964 5.40952 10.4171 5.30576C10.4378 5.202 10.4272 5.09443 10.3868 4.99667C10.3463 4.8989 10.2778 4.81533 10.1898 4.75651C10.1019 4.69769 9.99849 4.66627 9.89269 4.66622C9.75087 4.66629 9.61488 4.72263 9.51458 4.82289C9.41428 4.92315 9.35764 5.05911 9.35751 5.20093ZM5.71186 11.2096C5.42917 11.2065 5.14912 11.1548 4.88398 11.0567C4.6917 10.9826 4.51706 10.869 4.37131 10.7233C4.22557 10.5777 4.11194 10.4031 4.03774 10.2108C3.9396 9.94568 3.88787 9.66562 3.88481 9.38293C3.86316 8.91305 3.85892 8.77187 3.85892 7.5814C3.85892 6.39093 3.86363 6.25011 3.88481 5.77975C3.88823 5.49709 3.93996 5.2171 4.03774 4.95187C4.11185 4.75952 4.22545 4.58484 4.3712 4.43909C4.51696 4.29334 4.69163 4.17974 4.88398 4.10563C5.14911 4.00749 5.42917 3.95576 5.71186 3.95269C6.18175 3.93105 6.32292 3.92681 7.51292 3.92681C8.70292 3.92681 8.84422 3.9314 9.31457 3.95281C9.59723 3.95624 9.87722 4.00797 10.1425 4.10575C10.3348 4.17987 10.5095 4.29346 10.6552 4.43922C10.801 4.58497 10.9146 4.75965 10.9887 4.95199C11.0868 5.21712 11.1386 5.49718 11.1416 5.77987C11.1633 6.25046 11.1675 6.39093 11.1675 7.58152C11.1675 8.77211 11.1632 8.91281 11.1416 9.38316C11.1383 9.66584 11.0866 9.94585 10.9887 10.211C10.9145 10.4033 10.8009 10.5779 10.6551 10.7236C10.5094 10.8693 10.3347 10.9828 10.1425 11.0569C9.87732 11.1551 9.59726 11.2068 9.31457 11.2099C8.84469 11.2315 8.70351 11.2358 7.51292 11.2358C6.32233 11.2358 6.18163 11.2312 5.71186 11.2096ZM5.67492 3.14999C5.30502 3.15726 4.93904 3.22727 4.59257 3.35704C4.29639 3.47156 4.02741 3.6467 3.80288 3.87124C3.57834 4.09577 3.4032 4.36475 3.28869 4.66093C3.15893 5.0074 3.08892 5.37338 3.08163 5.74328C3.05963 6.21858 3.05469 6.37058 3.05469 7.58128C3.05469 8.79199 3.05975 8.94387 3.08163 9.41928C3.08892 9.78918 3.15893 10.1552 3.28869 10.5016C3.40321 10.7978 3.57835 11.0668 3.80289 11.2913C4.02742 11.5159 4.2964 11.691 4.59257 11.8055C4.93905 11.9352 5.30503 12.0052 5.67492 12.0126C6.15045 12.0342 6.30222 12.0395 7.51292 12.0395C8.72363 12.0395 8.87551 12.0345 9.35092 12.0126C9.72082 12.0053 10.0868 11.9353 10.4333 11.8055C10.7294 11.691 10.9984 11.5159 11.223 11.2913C11.4475 11.0668 11.6226 10.7978 11.7372 10.5016C11.8671 10.1552 11.9371 9.7892 11.9442 9.41928C11.9659 8.94364 11.9708 8.79199 11.9708 7.58128C11.9708 6.37058 11.9657 6.21869 11.9442 5.74328C11.9369 5.37338 11.8669 5.0074 11.7372 4.66093C11.6226 4.36481 11.4475 4.09587 11.2231 3.87134C10.9986 3.64681 10.7297 3.47164 10.4336 3.35704C10.0872 3.22719 9.72119 3.15717 9.35128 3.14999C8.87586 3.12822 8.72398 3.12305 7.51351 3.12305C6.30304 3.12305 6.15057 3.12811 5.67492 3.14999Z" fill="white"/>
</g>
<rect x="1" y="1.05566" width="13" height="13" rx="3.5" stroke="white"/>
</g>
<defs>
<radialGradient id="paint0_radial_1339_390" cx="0" cy="0" r="1" gradientUnits="userSpaceOnUse" gradientTransform="translate(2.27659 13.2928) scale(15.2355)">
<stop offset="0.09" stop-color="#FA8F21"/>
<stop offset="0.78" stop-color="#D82D7E"/>
</radialGradient>
<radialGradient id="paint1_radial_1339_390" cx="0" cy="0" r="1" gradientUnits="userSpaceOnUse" gradientTransform="translate(9.65825 12.9073) scale(13.9659 13.4073)">
<stop offset="0.64" stop-color="#8C3AAA" stop-opacity="0"/>
<stop offset="1" stop-color="#8C3AAA"/>
</radialGradient>
<clipPath id="clip0_1339_390">
<rect x="1.5" y="1.55566" width="12" height="12" rx="3" fill="white"/>
</clipPath>
</defs>
</svg>
