<svg width="14" height="10" viewBox="0 0 14 10" fill="none" xmlns="http://www.w3.org/2000/svg">
<g id="Group">
<path id="Vector" fill-rule="evenodd" clip-rule="evenodd" d="M12.5345 0.922937C12.1795 0.2913 11.7941 0.175119 11.0095 0.130937C10.2256 0.077755 8.25464 0.0556641 6.54709 0.0556641C4.83627 0.0556641 2.86445 0.077755 2.08145 0.130119C1.29845 0.175119 0.912273 0.290482 0.553909 0.922937C0.188182 1.55375 0 2.6403 0 4.55321V4.55975C0 6.46448 0.188182 7.55921 0.553909 8.18348C0.912273 8.81512 1.29764 8.92966 2.08064 8.98285C2.86445 9.02866 4.83627 9.05566 6.54709 9.05566C8.25464 9.05566 10.2256 9.02866 11.0103 8.98366C11.7949 8.93048 12.1803 8.81594 12.5354 8.1843C12.9044 7.56003 13.0909 6.4653 13.0909 4.56057V4.55403C13.0909 2.6403 12.9044 1.55375 12.5345 0.922937Z" fill="#F44336"/>
<path id="Vector_2" fill-rule="evenodd" clip-rule="evenodd" d="M4.9082 7.01065V2.10156L8.99911 4.55611L4.9082 7.01065Z" fill="#FAFAFA"/>
</g>
</svg>
